<svg xmlns="http://www.w3.org/2000/svg" viewBox="0 0 28 28" id="list"><g><rect width="7" height="7" x="1.5" y="1.5" rx=".5"></rect><rect width="7" height="7" x="1.5" y="10.5" rx=".5"></rect><rect width="7" height="7" x="1.5" y="19.5" rx=".5"></rect><path d="M25.479 1.5H12.521A1.022 1.022 0 0011.5 2.521V3.4L9.723 4.584a.5.5 0 000 .832L11.5 6.6v.878A1.022 1.022 0 0012.521 8.5H25.479A1.022 1.022 0 0026.5 7.479V2.521A1.022 1.022 0 0025.479 1.5zM19 6.5H15a.5.5 0 010-1h4a.5.5 0 010 1zm4-2H15a.5.5 0 010-1h8a.5.5 0 010 1zM25.479 10.5H12.521A1.022 1.022 0 0011.5 11.521V12.4L9.723 13.584a.5.5 0 000 .832L11.5 15.6v.878A1.022 1.022 0 0012.521 17.5H25.479A1.022 1.022 0 0026.5 16.479V11.521A1.022 1.022 0 0025.479 10.5zM19 15.5H15a.5.5 0 010-1h4a.5.5 0 010 1zm4-2H15a.5.5 0 010-1h8a.5.5 0 010 1zM25.479 19.5H12.521A1.022 1.022 0 0011.5 20.521V21.4L9.723 22.584a.5.5 0 000 .832L11.5 24.6v.878A1.022 1.022 0 0012.521 26.5H25.479A1.022 1.022 0 0026.5 25.479V20.521A1.022 1.022 0 0025.479 19.5zM19 24.5H15a.5.5 0 010-1h4a.5.5 0 010 1zm4-2H15a.5.5 0 010-1h8a.5.5 0 010 1z"></path></g></svg>